<svg width="160" height="160" viewBox="0 0 160 160" fill="none" xmlns="http://www.w3.org/2000/svg">
<g id="Basket">
<path id="Vector 89" d="M55.2941 20L40.5753 61.1429M40.5753 61.1429C40.5753 61.1429 28.049 59.5404 23.4342 64.5714C19.7026 68.6396 20.0059 78.2857 20.0059 78.2857C20.0059 78.2857 26.8632 122.857 30.2906 129.714C33.7181 136.571 40.5753 140 40.5753 140H119.425C119.425 140 122.847 140 129.709 129.714C136.572 119.429 139.994 78.2857 139.994 78.2857C139.994 78.2857 140.297 68.6396 136.566 64.5714C131.951 59.5404 119.425 61.1429 119.425 61.1429M40.5753 61.1429H119.425M119.425 61.1429L104.706 20" stroke="#FF7930" stroke-width="6" stroke-linecap="round"/>
</g>
</svg>
